<svg width="auto" height="100" viewBox="0 0 253.4 94.6" xmlns="http://www.w3.org/2000/svg"><style>.st0{fill:#fff}</style><path class="st0" d="M22.68 46.67h2.35c1.56 0 3.05-.22 4.46-.67 1.41-.44 2.63-1.12 3.68-2.03s1.89-2.07 2.51-3.5c.62-1.42.93-3.11.93-5.07 0-1.82-.28-3.42-.85-4.8-.57-1.39-1.36-2.56-2.38-3.52-1.01-.96-2.22-1.69-3.63-2.19s-2.95-.75-4.62-.75h-2.46v22.53zM12.21 15.28h14.84c2.81 0 5.45.52 7.93 1.55 2.47 1.03 4.63 2.46 6.49 4.27 1.85 1.81 3.32 3.95 4.4 6.41 1.09 2.46 1.63 5.09 1.63 7.9 0 2.85-.54 5.49-1.63 7.93s-2.56 4.56-4.4 6.38c-1.85 1.82-4.02 3.24-6.51 4.27s-5.12 1.55-7.9 1.55H12.21V15.28z"/><path class="st0" d="M67.26 24.09c-1.57 0-3.04.29-4.4.88-1.37.59-2.57 1.37-3.6 2.35s-1.85 2.11-2.46 3.39-.91 2.61-.91 4c0 1.75.3 3.35.91 4.81s1.42 2.72 2.46 3.79c1.03 1.07 2.23 1.9 3.6 2.51 1.37.6 2.84.91 4.4.91 1.57 0 3.03-.3 4.4-.91s2.57-1.44 3.6-2.51 1.85-2.33 2.46-3.79.91-3.06.91-4.81c0-1.39-.3-2.72-.91-4s-1.42-2.41-2.46-3.39c-1.03-.98-2.24-1.76-3.6-2.35-1.37-.59-2.84-.88-4.4-.88m0-10.15c2.88 0 5.67.51 8.36 1.52s5.06 2.44 7.13 4.27c2.06 1.83 3.71 4.02 4.94 6.57s1.84 5.33 1.84 8.36c0 3.28-.55 6.26-1.65 8.97-1.1 2.7-2.64 5.04-4.62 7.02s-4.32 3.51-7.05 4.59c-2.72 1.09-5.7 1.63-8.94 1.63s-6.22-.54-8.94-1.63c-2.72-1.08-5.07-2.61-7.05-4.59-1.97-1.98-3.51-4.32-4.62-7.02-1.1-2.71-1.65-5.69-1.65-8.97 0-3.03.61-5.81 1.84-8.36 1.23-2.54 2.87-4.73 4.94-6.57 2.06-1.83 4.44-3.26 7.13-4.27 2.67-1.01 5.46-1.52 8.34-1.52m39.59 25.79l9.77-24.45h11.37L110.8 55.53h-8.11L85.76 15.28h11.37z"/><path class="st0" d="M134.79 24.14v6.72h11.8v8.87h-11.8v6.94h12.44v8.86h-22.9V15.28h22.9v8.86z"/><path class="st0" d="M164.37 55.53h-10.46V24.14h-8.65v-8.86h27.76v8.86h-8.65zm21.46-27.81h-.11l-4.32 12.81h8.7l-4.27-12.81zm-7.31 20.82l-2.78 6.99h-11.11l15.48-40.25h11.42l15.16 40.25h-11.16l-2.62-6.99h-14.39z"/><path class="st0" d="M204.62 15.28h10.46v40.25h-10.46zm22.43 31.39h12.54v8.86h-23.01V15.28h10.47zM27.06 40.39h-4.38v6.28h2.35c1.57 0 3.05-.22 4.46-.67 1.41-.44 2.63-1.12 3.68-2.03.67-.58 1.26-1.27 1.75-2.06-2.45-1.01-5.08-1.52-7.86-1.52m16 7.57c-.49.61-1.02 1.19-1.59 1.75-1.85 1.82-4.02 3.24-6.51 4.27-.03.01-.05.02-.08.03.33.53.63 1.09.88 1.7.57 1.39.85 2.99.85 4.81 0 1.96-.31 3.65-.93 5.07s-1.46 2.59-2.51 3.5-2.28 1.59-3.68 2.03c-1.41.44-2.89.67-4.46.67h-2.35V55.53H12.21v25.12h14.84c2.78 0 5.41-.52 7.9-1.55s4.66-2.45 6.51-4.27 3.32-3.94 4.4-6.38c.5-1.11.88-2.27 1.15-3.47v-8.89c-.27-1.2-.65-2.36-1.15-3.48-.74-1.7-1.68-3.25-2.8-4.65"/><path class="st0" d="M22.68 40.39H12.22v15.14h10.46v-6.28h2.46c1.67 0 3.21.25 4.62.75s2.62 1.23 3.63 2.19c.57.54 1.07 1.15 1.5 1.82.02-.01.05-.02.08-.03 2.49-1.03 4.66-2.46 6.51-4.27.57-.56 1.09-1.14 1.59-1.75-.49-.61-1.02-1.2-1.59-1.75-1.85-1.82-4.01-3.24-6.49-4.27l-.06-.03a9.22 9.22 0 01-1.75 2.06c-1.05.91-2.28 1.58-3.68 2.03-1.41.44-2.89.67-4.46.67h-2.35v-6.28zm34.81 0h-.29c.09.19.19.37.29.55v-.55zm-10.47 4.1v36.16h10.46V65.98c-.36-1.65-.53-3.4-.53-5.25 0-1.91.18-3.71.53-5.42v-.43c-2.37-1.06-4.45-2.47-6.22-4.24a21.086 21.086 0 01-4.24-6.15"/><path class="st0" d="M57.2 40.39H47.02v4.1c1.07 2.34 2.48 4.39 4.24 6.15 1.77 1.77 3.85 3.19 6.22 4.24V40.94c-.09-.18-.19-.36-.28-.55m20.7-1.32c-2.89.09-5.56.6-8 1.53-2.69 1.03-4.99 2.49-6.91 4.38-.2.2-.4.4-.6.61.15.08.31.15.47.22 1.37.6 2.84.91 4.4.91 1.57 0 3.03-.3 4.4-.91s2.57-1.44 3.6-2.51 1.85-2.33 2.46-3.79c.06-.14.12-.29.18-.44m10.76 2.22c-.22.8-.49 1.58-.8 2.34-.98 2.4-2.31 4.52-3.98 6.35 1.39 1.16 2.44 2.66 3.12 4.51l9.93-4.16c-1.74-3.77-4.17-6.59-7.26-8.46-.32-.21-.66-.4-1.01-.58M57.57 54.93l-.09.39c-.36 1.7-.53 3.51-.53 5.42 0 1.85.18 3.6.53 5.25.26 1.18.6 2.32 1.04 3.4 1.05 2.6 2.52 4.83 4.4 6.7 1.89 1.87 4.15 3.32 6.78 4.35s5.53 1.55 8.7 1.55c3.38 0 6.5-.62 9.34-1.87 2.85-1.25 5.27-3.26 7.26-6.03.89-1.24 1.6-2.5 2.14-3.76.53-1.26.94-2.55 1.23-3.87.08-.36.15-.73.21-1.1v-7.18H78.36v8.22h8.54c-.21 2.35-1.1 4.1-2.67 5.26s-3.49 1.74-5.76 1.74c-1.71 0-3.23-.36-4.57-1.09-1.33-.73-2.45-1.68-3.34-2.86-.89-1.17-1.57-2.52-2.03-4.03a15.769 15.769 0 01-.19-8.56c-.36.01-.72.02-1.08.02-3.24 0-6.22-.54-8.94-1.63-.25-.11-.5-.22-.75-.32"/><path class="st0" d="M78.79 39.06c-.3 0-.6 0-.89.01-.06.15-.11.3-.17.44-.61 1.46-1.42 2.72-2.46 3.79a11.22 11.22 0 01-3.61 2.51c-1.37.61-2.84.91-4.4.91-1.57 0-3.03-.3-4.41-.91a6.5 6.5 0 01-.46-.22c-1.64 1.76-2.92 3.83-3.86 6.22-.39.99-.71 2.03-.96 3.11.24.11.49.21.74.31 2.72 1.08 5.7 1.63 8.94 1.63.36 0 .73-.01 1.08-.02.05-.21.11-.42.17-.62.44-1.51 1.1-2.87 1.97-4.08s1.97-2.19 3.28-2.94c1.32-.75 2.83-1.12 4.54-1.12 2.14 0 3.94.59 5.42 1.76.06.04.11.09.16.13 1.67-1.83 2.99-3.94 3.98-6.35.31-.76.57-1.53.8-2.34-2.85-1.48-6.14-2.22-9.86-2.22m19.81 8.98v32.61h10.46V55.53h-7.31z"/><path class="st0" d="M107.46 40.39H98.6v7.65l3.15 7.49h7.31v-6.28h-1.6zm16.87 0h-8l-3.78 8.86h3.57v31.39h10.46V55.53h-2.24V40.39z"/><path class="st0" d="M116.33 40.39h-8.87v8.86h5.08zm18.46 0h-10.46v15.14h2.24v-6.28h8.65v-2.58h-.43zm18.96 0h-11.43l-2.41 6.28h7.32v8.21l.7-2.05h.1l4.27 12.81h-8.7l3.41-10.11H136.5l-9.66 25.12h11.1l2.78-7h14.41l2.62 7h11.16-2.09v-5.54l-7.37-19.58h-5.54V40.81z"/><path class="st0" d="M147.23 46.67h-7.32l-3.41 8.86h10.52l.21-.65zm6.68-5.86v14.72h5.54zm16.55-.42h-3.63v9.45l3.63-9.45zm6.83 11.24l-1.55 3.9h-8.92v25.11h23.01v-8.86h-12.55V51.63z"/><path class="st0" d="M177.29 40.39h-6.83l-3.63 9.45v5.69h8.91l1.55-3.9z"/></svg>