<?xml version="1.0" encoding="utf-8"?>
<!-- Generator: Adobe Illustrator 25.1.0, SVG Export Plug-In . SVG Version: 6.00 Build 0)  -->
<svg version="1.1" id="Layer_1" xmlns="http://www.w3.org/2000/svg" xmlns:xlink="http://www.w3.org/1999/xlink" x="0px" y="0px"
	 viewBox="0 0 253.4 94.6" style="enable-background:new 0 0 253.4 94.6;" xml:space="preserve">
<style type="text/css">
	.st0{fill:#FFFFFF;}
</style>
<g>
	<path class="st0" d="M22.68,46.67h2.35c1.56,0,3.05-0.22,4.46-0.67c1.41-0.44,2.63-1.12,3.68-2.03c1.05-0.91,1.89-2.07,2.51-3.5
		c0.62-1.42,0.93-3.11,0.93-5.07c0-1.82-0.28-3.42-0.85-4.8c-0.57-1.39-1.36-2.56-2.38-3.52c-1.01-0.96-2.22-1.69-3.63-2.19
		c-1.41-0.5-2.95-0.75-4.62-0.75h-2.46V46.67z M12.21,15.28h14.84c2.81,0,5.45,0.52,7.93,1.55c2.47,1.03,4.63,2.46,6.49,4.27
		c1.85,1.81,3.32,3.95,4.4,6.41c1.09,2.46,1.63,5.09,1.63,7.9c0,2.85-0.54,5.49-1.63,7.93c-1.09,2.44-2.56,4.56-4.4,6.38
		c-1.85,1.82-4.02,3.24-6.51,4.27c-2.49,1.03-5.12,1.55-7.9,1.55H12.21V15.28z"/>
	<path class="st0" d="M67.26,24.09c-1.57,0-3.04,0.29-4.4,0.88c-1.37,0.59-2.57,1.37-3.6,2.35c-1.03,0.98-1.85,2.11-2.46,3.39
		c-0.61,1.28-0.91,2.61-0.91,4c0,1.75,0.3,3.35,0.91,4.81c0.61,1.46,1.42,2.72,2.46,3.79c1.03,1.07,2.23,1.9,3.6,2.51
		c1.37,0.6,2.84,0.91,4.4,0.91c1.57,0,3.03-0.3,4.4-0.91c1.37-0.61,2.57-1.44,3.6-2.51c1.03-1.07,1.85-2.33,2.46-3.79
		c0.61-1.46,0.91-3.06,0.91-4.81c0-1.39-0.3-2.72-0.91-4c-0.61-1.28-1.42-2.41-2.46-3.39c-1.03-0.98-2.24-1.76-3.6-2.35
		C70.29,24.38,68.82,24.09,67.26,24.09 M67.26,13.94c2.88,0,5.67,0.51,8.36,1.52c2.69,1.01,5.06,2.44,7.13,4.27
		c2.06,1.83,3.71,4.02,4.94,6.57c1.23,2.55,1.84,5.33,1.84,8.36c0,3.28-0.55,6.26-1.65,8.97c-1.1,2.7-2.64,5.04-4.62,7.02
		c-1.98,1.98-4.32,3.51-7.05,4.59c-2.72,1.09-5.7,1.63-8.94,1.63c-3.24,0-6.22-0.54-8.94-1.63c-2.72-1.08-5.07-2.61-7.05-4.59
		c-1.97-1.98-3.51-4.32-4.62-7.02c-1.1-2.71-1.65-5.69-1.65-8.97c0-3.03,0.61-5.81,1.84-8.36c1.23-2.54,2.87-4.73,4.94-6.57
		c2.06-1.83,4.44-3.26,7.13-4.27C61.59,14.45,64.38,13.94,67.26,13.94"/>
</g>
<polygon class="st0" points="106.85,39.73 116.62,15.28 127.99,15.28 110.8,55.53 102.69,55.53 85.76,15.28 97.13,15.28 "/>
<polygon class="st0" points="134.79,24.14 134.79,30.86 146.59,30.86 146.59,39.73 134.79,39.73 134.79,46.67 147.23,46.67 
	147.23,55.53 124.33,55.53 124.33,15.28 147.23,15.28 147.23,24.14 "/>
<polygon class="st0" points="164.37,55.53 153.91,55.53 153.91,24.14 145.26,24.14 145.26,15.28 173.02,15.28 173.02,24.14 
	164.37,24.14 "/>
<path class="st0" d="M185.83,27.72h-0.11l-4.32,12.81h8.7L185.83,27.72z M178.52,48.54l-2.78,6.99h-11.11l15.48-40.25h11.42
	l15.16,40.25h-11.16l-2.62-6.99H178.52z"/>
<rect x="204.62" y="15.28" class="st0" width="10.46" height="40.25"/>
<polygon class="st0" points="227.05,46.67 239.59,46.67 239.59,55.53 216.58,55.53 216.58,15.28 227.05,15.28 "/>
<g>
	<path class="st0" d="M27.06,40.39h-4.38v6.28h2.35c1.57,0,3.05-0.22,4.46-0.67c1.41-0.44,2.63-1.12,3.68-2.03
		c0.67-0.58,1.26-1.27,1.75-2.06C32.47,40.9,29.84,40.39,27.06,40.39 M43.06,47.96c-0.49,0.61-1.02,1.19-1.59,1.75
		c-1.85,1.82-4.02,3.24-6.51,4.27c-0.03,0.01-0.05,0.02-0.08,0.03c0.33,0.53,0.63,1.09,0.88,1.7c0.57,1.39,0.85,2.99,0.85,4.81
		c0,1.96-0.31,3.65-0.93,5.07c-0.62,1.42-1.46,2.59-2.51,3.5c-1.05,0.91-2.28,1.59-3.68,2.03c-1.41,0.44-2.89,0.67-4.46,0.67h-2.35
		V55.53H12.21v25.12h14.84c2.78,0,5.41-0.52,7.9-1.55c2.49-1.03,4.66-2.45,6.51-4.27c1.85-1.82,3.32-3.94,4.4-6.38
		c0.5-1.11,0.88-2.27,1.15-3.47v-8.89c-0.27-1.2-0.65-2.36-1.15-3.48C45.12,50.91,44.18,49.36,43.06,47.96"/>
	<path class="st0" d="M22.68,40.39H12.22v15.14h10.46v-6.28h2.46c1.67,0,3.21,0.25,4.62,0.75c1.41,0.5,2.62,1.23,3.63,2.19
		c0.57,0.54,1.07,1.15,1.5,1.82c0.02-0.01,0.05-0.02,0.08-0.03c2.49-1.03,4.66-2.46,6.51-4.27c0.57-0.56,1.09-1.14,1.59-1.75
		c-0.49-0.61-1.02-1.2-1.59-1.75c-1.85-1.82-4.01-3.24-6.49-4.27c-0.02-0.01-0.04-0.02-0.06-0.03c-0.5,0.79-1.08,1.48-1.75,2.06
		c-1.05,0.91-2.28,1.58-3.68,2.03c-1.41,0.44-2.89,0.67-4.46,0.67h-2.35V40.39z"/>
	<path class="st0" d="M57.49,40.39H57.2c0.09,0.19,0.19,0.37,0.29,0.55V40.39z M47.02,44.49v11.6v8.89v15.67h10.46V65.98
		c-0.36-1.65-0.53-3.4-0.53-5.25c0-1.91,0.18-3.71,0.53-5.42v-0.43c-2.37-1.06-4.45-2.47-6.22-4.24
		C49.51,48.88,48.09,46.83,47.02,44.49"/>
	<path class="st0" d="M57.2,40.39H47.02v4.1c1.07,2.34,2.48,4.39,4.24,6.15c1.77,1.77,3.85,3.19,6.22,4.24V40.94
		C57.39,40.76,57.29,40.58,57.2,40.39"/>
	<path class="st0" d="M77.9,39.07c-2.89,0.09-5.56,0.6-8,1.53c-2.69,1.03-4.99,2.49-6.91,4.38c-0.2,0.2-0.4,0.4-0.6,0.61
		c0.15,0.08,0.31,0.15,0.47,0.22c1.37,0.6,2.84,0.91,4.4,0.91c1.57,0,3.03-0.3,4.4-0.91c1.37-0.61,2.57-1.44,3.6-2.51
		c1.03-1.07,1.85-2.33,2.46-3.79C77.78,39.37,77.84,39.22,77.9,39.07 M88.66,41.29c-0.22,0.8-0.49,1.58-0.8,2.34
		c-0.98,2.4-2.31,4.52-3.98,6.35c1.39,1.16,2.44,2.66,3.12,4.51l9.93-4.16c-1.74-3.77-4.17-6.59-7.26-8.46
		C89.35,41.66,89.01,41.47,88.66,41.29 M57.57,54.93c-0.03,0.13-0.06,0.26-0.09,0.39c-0.36,1.7-0.53,3.51-0.53,5.42
		c0,1.85,0.18,3.6,0.53,5.25c0.26,1.18,0.6,2.32,1.04,3.4c1.05,2.6,2.52,4.83,4.4,6.7c1.89,1.87,4.15,3.32,6.78,4.35
		c2.63,1.03,5.53,1.55,8.7,1.55c3.38,0,6.5-0.62,9.34-1.87c2.85-1.25,5.27-3.26,7.26-6.03c0.89-1.24,1.6-2.5,2.14-3.76
		c0.53-1.26,0.94-2.55,1.23-3.87c0.08-0.36,0.15-0.73,0.21-1.1v-7.18H78.36v8.22h8.54c-0.21,2.35-1.1,4.1-2.67,5.26
		c-1.57,1.16-3.49,1.74-5.76,1.74c-1.71,0-3.23-0.36-4.57-1.09c-1.33-0.73-2.45-1.68-3.34-2.86c-0.89-1.17-1.57-2.52-2.03-4.03
		c-0.46-1.51-0.69-3.05-0.69-4.62c0-1.32,0.17-2.63,0.5-3.94c-0.36,0.01-0.72,0.02-1.08,0.02c-3.24,0-6.22-0.54-8.94-1.63
		C58.07,55.14,57.82,55.03,57.57,54.93"/>
	<path class="st0" d="M78.79,39.06c-0.3,0-0.6,0-0.89,0.01c-0.06,0.15-0.11,0.3-0.17,0.44c-0.61,1.46-1.42,2.72-2.46,3.79
		c-1.03,1.07-2.24,1.91-3.61,2.51c-1.37,0.61-2.84,0.91-4.4,0.91c-1.57,0-3.03-0.3-4.41-0.91c-0.16-0.07-0.31-0.14-0.46-0.22
		c-1.64,1.76-2.92,3.83-3.86,6.22c-0.39,0.99-0.71,2.03-0.96,3.11c0.24,0.11,0.49,0.21,0.74,0.31c2.72,1.08,5.7,1.63,8.94,1.63
		c0.36,0,0.73-0.01,1.08-0.02c0.05-0.21,0.11-0.42,0.17-0.62c0.44-1.51,1.1-2.87,1.97-4.08c0.87-1.21,1.97-2.19,3.28-2.94
		c1.32-0.75,2.83-1.12,4.54-1.12c2.14,0,3.94,0.59,5.42,1.76c0.06,0.04,0.11,0.09,0.16,0.13c1.67-1.83,2.99-3.94,3.98-6.35
		c0.31-0.76,0.57-1.53,0.8-2.34C85.8,39.8,82.51,39.06,78.79,39.06"/>
</g>
<polygon class="st0" points="98.6,48.04 98.6,58.17 98.6,65.35 98.6,80.65 109.06,80.65 109.06,55.53 101.75,55.53 "/>
<polygon class="st0" points="107.46,40.39 98.6,40.39 98.6,48.04 101.75,55.53 109.06,55.53 109.06,49.25 107.46,49.25 "/>
<path class="st0" d="M124.33,40.39h-8l-3.78,8.86h3.57v31.39h10.46V55.53h-2.24V40.39z"/>
<polygon class="st0" points="116.33,40.39 107.46,40.39 107.46,49.25 109.06,49.25 112.54,49.25 "/>
<polygon class="st0" points="134.79,40.39 124.33,40.39 124.33,55.53 126.57,55.53 126.57,49.25 135.22,49.25 135.22,46.67 
	134.79,46.67 "/>
<polygon class="st0" points="153.75,40.39 142.32,40.39 139.91,46.67 147.23,46.67 147.23,54.88 147.93,52.83 148.03,52.83 
	152.3,65.64 143.6,65.64 147.01,55.53 136.5,55.53 126.84,80.65 137.94,80.65 140.72,73.65 155.13,73.65 157.75,80.65 168.91,80.65 
	166.82,80.65 166.82,75.11 159.45,55.53 153.91,55.53 153.91,40.81 "/>
<polygon class="st0" points="147.23,46.67 139.91,46.67 136.5,55.53 147.02,55.53 147.23,54.88 "/>
<polygon class="st0" points="153.91,40.81 153.91,55.53 159.45,55.53 "/>
<path class="st0" d="M170.46,40.39h-3.63v9.45L170.46,40.39z M177.29,51.63l-1.55,3.9h-8.92v19.58v5.53h2.08h20.93v-8.86h-12.55
	V51.63z"/>
<polygon class="st0" points="177.29,40.39 170.46,40.39 166.83,49.84 166.83,55.53 175.74,55.53 177.29,51.63 "/>
</svg>
